<svg width="18" height="18" viewBox="0 0 18 18" fill="none" xmlns="http://www.w3.org/2000/svg">
<path d="M9.00003 3.68437C10.6274 3.68437 11.7252 4.38733 12.3511 4.97474L14.7971 2.58659C13.2948 1.19029 11.34 0.333252 9.00003 0.333252C5.6104 0.333252 2.683 2.27844 1.25781 5.10955L4.06003 7.28585C4.763 5.19622 6.70818 3.68437 9.00003 3.68437Z" fill="#EA4335"/>
<path d="M17.32 9.19251C17.32 8.47991 17.2622 7.95991 17.137 7.42065H9V10.637H13.7763C13.68 11.4362 13.16 12.6399 12.0044 13.4488L14.7393 15.5673C16.3763 14.0555 17.32 11.831 17.32 9.19251Z" fill="#4285F4"/>
<path d="M4.06931 10.7141C3.88634 10.1748 3.78042 9.59703 3.78042 8.99999C3.78042 8.40295 3.88634 7.82518 4.05968 7.28592L1.25745 5.10962C0.670045 6.28443 0.333008 7.60369 0.333008 8.99999C0.333008 10.3963 0.670045 11.7155 1.25745 12.8904L4.06931 10.7141Z" fill="#FBBC05"/>
<path d="M9.00017 17.6667C11.3402 17.6667 13.3046 16.8963 14.7394 15.5674L12.0046 13.4489C11.2728 13.9593 10.2905 14.3156 9.00017 14.3156C6.70832 14.3156 4.76313 12.8037 4.0698 10.7141L1.26758 12.8904C2.69276 15.7215 5.61054 17.6667 9.00017 17.6667Z" fill="#34A853"/>
</svg>
