<svg width="60" height="60" viewBox="0 0 60 60" fill="none" xmlns="http://www.w3.org/2000/svg">
<circle cx="30" cy="30" r="30" fill="#F0F5FF"/>
<path d="M44.625 17.6602H36.5813C34.8551 17.6602 33.1676 18.1559 31.7156 19.091L30 20.1914L28.2844 19.091C26.8339 18.156 25.1445 17.6592 23.4187 17.6602H15.375C14.7527 17.6602 14.25 18.1629 14.25 18.7852V38.7539C14.25 39.3762 14.7527 39.8789 15.375 39.8789H23.4187C25.1449 39.8789 26.8324 40.3746 28.2844 41.3098L29.8453 42.3152C29.891 42.3434 29.9437 42.3609 29.9965 42.3609C30.0492 42.3609 30.102 42.3469 30.1477 42.3152L31.7086 41.3098C33.1641 40.3746 34.8551 39.8789 36.5813 39.8789H44.625C45.2473 39.8789 45.75 39.3762 45.75 38.7539V18.7852C45.75 18.1629 45.2473 17.6602 44.625 17.6602ZM23.4187 37.3477H16.7812V20.1914H23.4187C24.6633 20.1914 25.8727 20.5465 26.9168 21.218L28.6324 22.3184L28.875 22.4766V38.7188C27.2016 37.8188 25.3312 37.3477 23.4187 37.3477ZM43.2188 37.3477H36.5813C34.6688 37.3477 32.7984 37.8188 31.125 38.7188V22.4766L31.3676 22.3184L33.0832 21.218C34.1273 20.5465 35.3367 20.1914 36.5813 20.1914H43.2188V37.3477ZM25.9535 24.6914H19.4215C19.2844 24.6914 19.1719 24.8109 19.1719 24.9551V26.5371C19.1719 26.6813 19.2844 26.8008 19.4215 26.8008H25.95C26.0871 26.8008 26.1996 26.6813 26.1996 26.5371V24.9551C26.2031 24.8109 26.0906 24.6914 25.9535 24.6914ZM33.7969 24.9551V26.5371C33.7969 26.6813 33.9094 26.8008 34.0465 26.8008H40.575C40.7121 26.8008 40.8246 26.6813 40.8246 26.5371V24.9551C40.8246 24.8109 40.7121 24.6914 40.575 24.6914H34.0465C33.9094 24.6914 33.7969 24.8109 33.7969 24.9551ZM25.9535 29.6133H19.4215C19.2844 29.6133 19.1719 29.7328 19.1719 29.877V31.459C19.1719 31.6031 19.2844 31.7227 19.4215 31.7227H25.95C26.0871 31.7227 26.1996 31.6031 26.1996 31.459V29.877C26.2031 29.7328 26.0906 29.6133 25.9535 29.6133ZM40.5785 29.6133H34.0465C33.9094 29.6133 33.7969 29.7328 33.7969 29.877V31.459C33.7969 31.6031 33.9094 31.7227 34.0465 31.7227H40.575C40.7121 31.7227 40.8246 31.6031 40.8246 31.459V29.877C40.8281 29.7328 40.7156 29.6133 40.5785 29.6133Z" fill="#597EF7"/>
</svg>
