<svg width="60" height="60" viewBox="0 0 60 60" fill="none" xmlns="http://www.w3.org/2000/svg">
<circle cx="30" cy="30" r="30" fill="#FFF7E6"/>
<path d="M43.2188 39.8438H19.0312V17.9062C19.0312 17.7516 18.9047 17.625 18.75 17.625H16.7812C16.6266 17.625 16.5 17.7516 16.5 17.9062V42.0938C16.5 42.2484 16.6266 42.375 16.7812 42.375H43.2188C43.3734 42.375 43.5 42.2484 43.5 42.0938V40.125C43.5 39.9703 43.3734 39.8438 43.2188 39.8438ZM22.125 37.0312H24.0938C24.2484 37.0312 24.375 36.9047 24.375 36.75V31.6875C24.375 31.5328 24.2484 31.4062 24.0938 31.4062H22.125C21.9703 31.4062 21.8438 31.5328 21.8438 31.6875V36.75C21.8438 36.9047 21.9703 37.0312 22.125 37.0312ZM27.4688 37.0312H29.4375C29.5922 37.0312 29.7188 36.9047 29.7188 36.75V25.5C29.7188 25.3453 29.5922 25.2188 29.4375 25.2188H27.4688C27.3141 25.2188 27.1875 25.3453 27.1875 25.5V36.75C27.1875 36.9047 27.3141 37.0312 27.4688 37.0312ZM32.8125 37.0312H34.7812C34.9359 37.0312 35.0625 36.9047 35.0625 36.75V28.2422C35.0625 28.0875 34.9359 27.9609 34.7812 27.9609H32.8125C32.6578 27.9609 32.5312 28.0875 32.5312 28.2422V36.75C32.5312 36.9047 32.6578 37.0312 32.8125 37.0312ZM38.1562 37.0312H40.125C40.2797 37.0312 40.4062 36.9047 40.4062 36.75V22.6875C40.4062 22.5328 40.2797 22.4062 40.125 22.4062H38.1562C38.0016 22.4062 37.875 22.5328 37.875 22.6875V36.75C37.875 36.9047 38.0016 37.0312 38.1562 37.0312Z" fill="#FFA940"/>
</svg>
