<svg width="60" height="60" viewBox="0 0 60 60" fill="none" xmlns="http://www.w3.org/2000/svg">
<circle cx="30" cy="30" r="30" fill="#FEFFE6"/>
<path d="M42.0445 22.1461L34.4789 14.5805C34.268 14.3695 33.9832 14.25 33.6844 14.25H18.75C18.1277 14.25 17.625 14.7527 17.625 15.375V44.625C17.625 45.2473 18.1277 45.75 18.75 45.75H41.25C41.8723 45.75 42.375 45.2473 42.375 44.625V22.9441C42.375 22.6453 42.2555 22.357 42.0445 22.1461ZM39.7805 23.4609H33.1641V16.8445L39.7805 23.4609ZM39.8438 43.2188H20.1562V16.7812H30.7734V24.375C30.7734 24.7666 30.929 25.1422 31.2059 25.4191C31.4828 25.696 31.8584 25.8516 32.25 25.8516H39.8438V43.2188ZM29.7188 33.7266H23.25C23.0953 33.7266 22.9688 33.8531 22.9688 34.0078V35.6953C22.9688 35.85 23.0953 35.9766 23.25 35.9766H29.7188C29.8734 35.9766 30 35.85 30 35.6953V34.0078C30 33.8531 29.8734 33.7266 29.7188 33.7266ZM22.9688 29.2266V30.9141C22.9688 31.0688 23.0953 31.1953 23.25 31.1953H36.75C36.9047 31.1953 37.0312 31.0688 37.0312 30.9141V29.2266C37.0312 29.0719 36.9047 28.9453 36.75 28.9453H23.25C23.0953 28.9453 22.9688 29.0719 22.9688 29.2266Z" fill="#FFC53D"/>
</svg>
