<svg width="60" height="60" viewBox="0 0 60 60" fill="none" xmlns="http://www.w3.org/2000/svg">
<circle cx="30" cy="30" r="30" fill="#FFF1F0"/>
<path d="M28.3127 30C28.3127 30.4476 28.4905 30.8768 28.807 31.1932C29.1234 31.5097 29.5526 31.6875 30.0002 31.6875C30.4478 31.6875 30.877 31.5097 31.1934 31.1932C31.5099 30.8768 31.6877 30.4476 31.6877 30C31.6877 29.5524 31.5099 29.1232 31.1934 28.8068C30.877 28.4903 30.4478 28.3125 30.0002 28.3125C29.5526 28.3125 29.1234 28.4903 28.807 28.8068C28.4905 29.1232 28.3127 29.5524 28.3127 30ZM35.344 30C35.344 30.4476 35.5217 30.8768 35.8382 31.1932C36.1547 31.5097 36.5839 31.6875 37.0315 31.6875C37.479 31.6875 37.9082 31.5097 38.2247 31.1932C38.5412 30.8768 38.719 30.4476 38.719 30C38.719 29.5524 38.5412 29.1232 38.2247 28.8068C37.9082 28.4903 37.479 28.3125 37.0315 28.3125C36.5839 28.3125 36.1547 28.4903 35.8382 28.8068C35.5217 29.1232 35.344 29.5524 35.344 30ZM21.2815 30C21.2815 30.4476 21.4592 30.8768 21.7757 31.1932C22.0922 31.5097 22.5214 31.6875 22.969 31.6875C23.4165 31.6875 23.8457 31.5097 24.1622 31.1932C24.4787 30.8768 24.6565 30.4476 24.6565 30C24.6565 29.5524 24.4787 29.1232 24.1622 28.8068C23.8457 28.4903 23.4165 28.3125 22.969 28.3125C22.5214 28.3125 22.0922 28.4903 21.7757 28.8068C21.4592 29.1232 21.2815 29.5524 21.2815 30ZM44.5268 23.8969C43.7322 22.009 42.5932 20.3145 41.1412 18.859C39.6994 17.4119 37.9878 16.2617 36.1033 15.4734C34.1697 14.6613 32.1166 14.25 30.0002 14.25H29.9299C27.7994 14.2605 25.7357 14.6824 23.7951 15.5121C21.9268 16.3085 20.2312 17.4607 18.8029 18.9047C17.365 20.3566 16.2365 22.0441 15.4561 23.925C14.6475 25.8727 14.2397 27.9434 14.2502 30.0738C14.2621 32.5153 14.8397 34.9208 15.9377 37.1016V42.4453C15.9377 42.8742 16.1081 43.2856 16.4114 43.5888C16.7146 43.8921 17.126 44.0625 17.5549 44.0625H22.9022C25.0829 45.1605 27.4884 45.7381 29.9299 45.75H30.0037C32.1096 45.75 34.1522 45.3422 36.0752 44.5441C37.9502 43.7653 39.6554 42.6284 41.0955 41.1973C42.5475 39.7594 43.69 38.0789 44.4881 36.2051C45.3178 34.2645 45.7397 32.2008 45.7502 30.0703C45.7607 27.9293 45.3459 25.8516 44.5268 23.8969ZM39.2147 39.2953C36.7502 41.7352 33.4807 43.0781 30.0002 43.0781H29.9404C27.8205 43.0676 25.7147 42.5402 23.8549 41.5488L23.5596 41.3906H18.6096V36.4406L18.4514 36.1453C17.46 34.2855 16.9326 32.1797 16.9221 30.0598C16.908 26.5547 18.2475 23.2641 20.7049 20.7855C23.1588 18.307 26.4389 16.9359 29.944 16.9219H30.0037C31.7615 16.9219 33.4666 17.2629 35.0732 17.9379C36.6412 18.5953 38.0475 19.541 39.2568 20.7504C40.4627 21.9562 41.4119 23.366 42.0693 24.934C42.7514 26.5582 43.0924 28.2809 43.0854 30.0598C43.0643 33.5613 41.6897 36.8414 39.2147 39.2953Z" fill="#FF4D4F"/>
</svg>
