<svg width="60" height="60" viewBox="0 0 60 60" fill="none" xmlns="http://www.w3.org/2000/svg">
<circle cx="30" cy="30" r="30" fill="#E6FFFB"/>
<path d="M44.625 19.875H39V17.9062C39 17.7516 38.8734 17.625 38.7188 17.625H36.75C36.5953 17.625 36.4688 17.7516 36.4688 17.9062V19.875H31.2656V17.9062C31.2656 17.7516 31.1391 17.625 30.9844 17.625H29.0156C28.8609 17.625 28.7344 17.7516 28.7344 17.9062V19.875H23.5312V17.9062C23.5312 17.7516 23.4047 17.625 23.25 17.625H21.2812C21.1266 17.625 21 17.7516 21 17.9062V19.875H15.375C14.7527 19.875 14.25 20.3777 14.25 21V41.25C14.25 41.8723 14.7527 42.375 15.375 42.375H44.625C45.2473 42.375 45.75 41.8723 45.75 41.25V21C45.75 20.3777 45.2473 19.875 44.625 19.875ZM43.2188 39.8438H16.7812V22.4062H21V24.375C21 24.5297 21.1266 24.6562 21.2812 24.6562H23.25C23.4047 24.6562 23.5312 24.5297 23.5312 24.375V22.4062H28.7344V24.375C28.7344 24.5297 28.8609 24.6562 29.0156 24.6562H30.9844C31.1391 24.6562 31.2656 24.5297 31.2656 24.375V22.4062H36.4688V24.375C36.4688 24.5297 36.5953 24.6562 36.75 24.6562H38.7188C38.8734 24.6562 39 24.5297 39 24.375V22.4062H43.2188V39.8438ZM26.625 29.4375H20.1562C20.0016 29.4375 19.875 29.5641 19.875 29.7188V31.4062C19.875 31.5609 20.0016 31.6875 20.1562 31.6875H26.625C26.7797 31.6875 26.9062 31.5609 26.9062 31.4062V29.7188C26.9062 29.5641 26.7797 29.4375 26.625 29.4375ZM26.625 34.2188H20.1562C20.0016 34.2188 19.875 34.3453 19.875 34.5V36.1875C19.875 36.3422 20.0016 36.4688 20.1562 36.4688H26.625C26.7797 36.4688 26.9062 36.3422 26.9062 36.1875V34.5C26.9062 34.3453 26.7797 34.2188 26.625 34.2188ZM37.4602 27.982L33.818 33.034L31.9617 30.4641C31.8562 30.3164 31.6875 30.232 31.5082 30.232H29.5781C29.3496 30.232 29.216 30.4922 29.3496 30.6785L33.3609 36.2402C33.4127 36.3121 33.4809 36.3706 33.5597 36.411C33.6386 36.4514 33.7259 36.4724 33.8145 36.4724C33.903 36.4724 33.9904 36.4514 34.0692 36.411C34.1481 36.3706 34.2162 36.3121 34.268 36.2402L40.0688 28.2C40.2023 28.0137 40.0688 27.7535 39.8402 27.7535H37.9102C37.7344 27.75 37.5656 27.8379 37.4602 27.982Z" fill="#36CFC9"/>
</svg>
