<svg width="24" height="24" viewBox="0 0 24 24" fill="none" xmlns="http://www.w3.org/2000/svg">
<path d="M12 22C17.5228 22 22 17.5228 22 12C22 6.47715 17.5228 2 12 2C6.47715 2 2 6.47715 2 12C2 17.5228 6.47715 22 12 22Z" fill="url(#paint0_linear)"/>
<path d="M15.6567 13.7422C15.3364 13.5235 14.9145 13.5274 14.5981 13.7461L14.1371 14.0625C13.6254 14.4141 12.9457 14.3946 12.4535 14.0157C11.9887 13.6602 11.5473 13.2774 11.1293 12.8711C10.7231 12.4532 10.3403 12.0079 9.9848 11.5469C9.60589 11.0547 9.58636 10.375 9.93792 9.86333L10.2543 9.40239C10.4731 9.08208 10.4731 8.66411 10.2582 8.3438L8.94574 6.4063C8.58246 5.87114 7.87543 5.69145 7.30121 5.99223C6.14496 6.5977 5.65668 7.99223 6.18793 9.18755C6.94964 10.9063 7.97699 12.4766 9.21527 13.8516L10.1489 14.7852C11.5239 16.0235 13.0942 17.0508 14.8129 17.8125C16.0043 18.3438 17.4028 17.8555 18.0082 16.6993C18.309 16.125 18.1293 15.418 17.5942 15.0547L15.6567 13.7422Z" fill="white"/>
<defs>
<linearGradient id="paint0_linear" x1="22" y1="2" x2="2" y2="22" gradientUnits="userSpaceOnUse">
<stop stop-color="#61D36C"/>
<stop offset="1" stop-color="#30B945"/>
</linearGradient>
</defs>
</svg>
