<svg width="24" height="24" viewBox="0 0 24 24" fill="none" xmlns="http://www.w3.org/2000/svg">
<path d="M12 22C17.5228 22 22 17.5228 22 12C22 6.47715 17.5228 2 12 2C6.47715 2 2 6.47715 2 12C2 17.5228 6.47715 22 12 22Z" fill="url(#paint0_linear)"/>
<path d="M5.44531 8.11328V15.8789L9.23438 11.9805L5.44531 8.11328Z" fill="white"/>
<path d="M18.5547 8.11328V15.8789L14.7852 11.9961L18.5547 8.11328Z" fill="white"/>
<path d="M5.73438 7.76172H18.2461L13.3242 12.8789C12.9727 13.2422 12.4922 13.4492 11.9844 13.4492C11.4766 13.4492 10.9961 13.2422 10.6445 12.8789L5.73438 7.76172Z" fill="white"/>
<path d="M13.6094 13.1523C13.1875 13.5898 12.5977 13.8438 11.9883 13.8438C11.3789 13.8438 10.7891 13.5938 10.3672 13.1523L9.53516 12.2852L5.73438 16.2383H18.2461L14.4453 12.2812L13.6094 13.1523Z" fill="white"/>
<defs>
<linearGradient id="paint0_linear" x1="22" y1="2" x2="2" y2="22" gradientUnits="userSpaceOnUse">
<stop stop-color="#FE9705"/>
<stop offset="1" stop-color="#FF6C00"/>
</linearGradient>
</defs>
</svg>
