<svg width="24" height="24" viewBox="0 0 24 24" fill="none" xmlns="http://www.w3.org/2000/svg">
<path d="M12 22C17.5228 22 22 17.5228 22 12C22 6.47715 17.5228 2 12 2C6.47715 2 2 6.47715 2 12C2 17.5228 6.47715 22 12 22Z" fill="#00ADEF"/>
<path d="M17.5425 8.34863C17.2886 8.46191 17.023 8.55176 16.7535 8.61426C17.0504 8.3291 17.2769 7.97754 17.4019 7.5791C17.4371 7.46582 17.316 7.36816 17.2144 7.43066C16.8394 7.65332 16.4332 7.82129 16.0074 7.93066C15.984 7.93848 15.9566 7.93848 15.9332 7.93848C15.855 7.93848 15.7808 7.91113 15.7222 7.85645C15.273 7.45801 14.691 7.23926 14.0894 7.23926C13.8277 7.23926 13.566 7.27832 13.3082 7.36035C12.5074 7.61035 11.8902 8.27051 11.6949 9.08301C11.6207 9.3877 11.6011 9.69238 11.6363 9.99317C11.6402 10.0283 11.6246 10.0518 11.6129 10.0635C11.5972 10.083 11.5699 10.0947 11.5465 10.0947C11.5425 10.0947 11.5425 10.0947 11.5386 10.0947C9.78864 9.93067 8.20661 9.08692 7.08942 7.71973C7.03083 7.64941 6.92145 7.65723 6.87848 7.73535C6.65973 8.11035 6.54255 8.54004 6.54255 8.97754C6.54255 9.64551 6.81208 10.2783 7.27692 10.7354C7.08161 10.6885 6.8902 10.6143 6.71442 10.5166C6.62848 10.4697 6.52301 10.5322 6.52301 10.6299C6.5113 11.6221 7.09333 12.5088 7.96442 12.9072C7.94879 12.9072 7.92926 12.9072 7.90973 12.9072C7.77301 12.9072 7.63239 12.8955 7.49567 12.8682C7.39801 12.8486 7.31989 12.9424 7.34723 13.0361C7.62848 13.919 8.3902 14.5713 9.30036 14.7197C8.54645 15.2275 7.66364 15.4932 6.74958 15.4932H6.46442C6.37458 15.4932 6.30036 15.5518 6.28083 15.6338C6.25739 15.7158 6.30036 15.8057 6.37458 15.8486C7.40583 16.4502 8.58161 16.7666 9.77692 16.7666C10.8238 16.7666 11.8004 16.5596 12.6871 16.1494C13.4957 15.7744 14.2144 15.2393 14.816 14.5557C15.3785 13.919 15.816 13.1846 16.1207 12.3721C16.4097 11.5986 16.5621 10.7705 16.5621 9.98145V9.94238C16.5621 9.81738 16.6207 9.69629 16.7183 9.61426C17.0972 9.30567 17.4293 8.94238 17.6988 8.53613C17.773 8.43066 17.6597 8.29395 17.5425 8.34863Z" fill="white"/>
</svg>
